<svg width="60" height="60" viewBox="0 0 60 60" fill="none" xmlns="http://www.w3.org/2000/svg">
<circle cx="30" cy="30" r="28.5" stroke="white" stroke-width="3"/>
<path d="M19.1612 37.0971L15.5701 44.401C15.2861 44.9961 14.7586 45.2734 13.9876 45.2328L10.7618 45.1111C10.2613 45.0976 9.92992 44.9353 9.76761 44.6242C9.60531 44.3131 9.63236 43.9614 9.84877 43.5692L23.7261 16.8492C24.0102 16.3081 24.3551 15.8956 24.7609 15.6116C25.1666 15.3275 25.5792 15.1855 25.9985 15.1855L30.7866 15.1449C31.3005 15.1449 31.7063 15.314 32.0039 15.6521C32.315 15.9903 32.4502 16.4907 32.4096 17.1535L30.8677 44.2793C30.8271 44.8879 30.4146 45.1923 29.6301 45.1923H26.2622C25.5859 45.1923 25.2681 44.8203 25.3086 44.0764L25.755 37.0971H19.1612ZM21.5756 32.1467H26.0999L26.81 21.4749L21.5756 32.1467ZM47.7341 20.0547C47.7341 20.0547 45.7458 20.0547 41.7693 20.0547L35.6016 44.2793C35.4393 44.8879 35.02 45.1923 34.3437 45.1923H30.8135C30.4753 45.1923 30.2319 45.0705 30.0831 44.8271C29.9343 44.5701 29.9005 44.2658 29.9816 43.9141L36.0682 20.0547H29.7382C29.3189 20.0547 29.0484 19.9398 28.9266 19.7098C28.8049 19.4799 28.8117 19.0944 28.9469 18.5534L29.6164 15.9362C29.6976 15.5845 29.8193 15.3613 29.9816 15.2667C30.1575 15.1584 30.4483 15.1043 30.854 15.1043H38.3405H41.8707H48.7283C49.5669 15.1043 49.8847 15.5507 49.6818 16.4434L49.1543 18.8983C49.1002 19.2094 48.9244 19.4799 48.6268 19.7098C48.3428 19.9398 48.0452 20.0547 47.7341 20.0547Z" fill="white"/>
</svg>
